<svg width="106" height="28" viewBox="0 0 106 28" fill="none" xmlns="http://www.w3.org/2000/svg">
<path fill-rule="evenodd" clip-rule="evenodd" d="M26.3305 5.12082C27.2271 6.09275 27.9658 7.17718 28.5239 8.34082C29.3368 10.0374 29.755 11.8693 29.7521 13.7208C29.7461 21.1942 23.11 27.2543 14.9141 27.2708C13.0071 27.2699 11.1186 26.9302 9.35397 26.2708C8.09537 25.8148 6.91387 25.1987 5.84461 24.4408C1.29668 21.2804 -0.854957 16.0182 0.313762 10.9143C1.48248 5.81029 5.76356 1.77286 11.3184 0.535894C16.8733 -0.701068 22.7134 1.08258 26.3305 5.12082ZM19.8598 3.91084C18.3072 3.25198 16.6153 2.91067 14.9028 2.91084L14.9138 2.89084C10.8528 2.88808 7.07347 4.78262 4.90001 7.91059C2.72655 11.0386 2.46208 14.9638 4.19927 18.3108C4.69463 17.8363 4.99989 17.2232 5.06564 16.5708C5.46451 14.0583 7.62903 12.0846 10.3845 11.7208C11.9392 11.5923 13.1808 10.4852 13.3565 9.07084C13.7554 6.55826 15.9199 4.58455 18.6754 4.22084C19.0831 4.1642 19.4812 4.06001 19.8598 3.91084ZM5.83341 20.7208C5.87728 20.6841 5.92115 20.6486 5.96502 20.613C6.05275 20.5419 6.14049 20.4708 6.22822 20.3908C7.20388 19.5282 7.83015 18.3896 8.00483 17.1608C8.07566 16.47 8.41389 15.8248 8.95894 15.3408C9.48342 14.843 10.1894 14.5371 10.9439 14.4808C13.6994 14.1171 15.8639 12.1434 16.2628 9.63078C16.3102 8.9083 16.6503 8.22762 17.2169 7.72079C17.7543 7.23264 18.467 6.93789 19.2238 6.89078C20.4564 6.73615 21.606 6.2365 22.5139 5.46078C23.5476 6.24286 24.4235 7.18368 25.102 8.24078C25.0603 8.29214 25.0125 8.33909 24.9594 8.38078C24.436 8.88298 23.7309 9.19555 22.9745 9.26079C20.2155 9.61823 18.0476 11.5951 17.6556 14.1108C17.4962 15.5301 16.2627 16.6508 14.7055 16.7908C11.9424 17.1517 9.76654 19.1235 9.35374 21.6408C9.29472 22.1295 9.11066 22.5988 8.81637 23.0108C7.69118 22.4016 6.68343 21.628 5.83341 20.7208ZM11.6125 24.1608C12.6821 24.4406 13.7895 24.5819 14.9023 24.5808V24.5308C18.5749 24.5178 22.0339 22.9547 24.2696 20.2976C26.5053 17.6405 27.2657 14.1891 26.3289 10.9508C25.4964 11.4876 24.5327 11.8309 23.5216 11.9508C21.9688 12.0953 20.7411 13.2149 20.5827 14.6308C20.1826 17.1466 18.0128 19.1212 15.2532 19.4808C13.7004 19.6253 12.4727 20.7449 12.3143 22.1608C12.2162 22.861 11.9784 23.5388 11.6125 24.1608Z" fill="#9893A3" fill-opacity="0.6"/>
<path d="M40.7908 19.3913H43.0369C43.688 19.3913 44.0135 19.0007 44.0135 18.2195V13.3366C44.0135 12.5554 43.688 12.1648 43.0369 12.1648H40.7908C40.1398 12.1648 39.8143 12.5554 39.8143 13.3366V18.2195C39.8143 19.0007 40.1398 19.3913 40.7908 19.3913ZM40.7908 21.1491C38.8377 21.1491 37.8611 20.1726 37.8611 18.2195V6.89133L39.7166 6.01242H39.8143V10.7097C40.0747 10.5079 40.4002 10.407 40.7908 10.407H43.0369C44.9901 10.407 45.9666 11.3835 45.9666 13.3366V18.2195C45.9666 20.1726 44.9901 21.1491 43.0369 21.1491H40.7908Z" fill="#9893A3" fill-opacity="0.6"/>
<path d="M50.5311 8.24875C50.3032 8.01437 50.1893 7.73443 50.1893 7.40891C50.1893 7.07687 50.3032 6.79367 50.5311 6.5593C50.7589 6.32492 51.0356 6.20773 51.3611 6.20773C51.6867 6.20773 51.9634 6.32492 52.1912 6.5593C52.4191 6.79367 52.533 7.07687 52.533 7.40891C52.533 7.73443 52.4191 8.01437 52.1912 8.24875C51.9634 8.48312 51.6867 8.60031 51.3611 8.60031C51.0356 8.60031 50.7589 8.48312 50.5311 8.24875ZM50.3846 21.5398V10.8952L52.2401 10.0163H52.3377V20.6609L50.4822 21.5398H50.3846Z" fill="#9893A3" fill-opacity="0.6"/>
<path d="M56.7557 21.5398V13.3366C56.7557 11.3835 57.7322 10.407 59.6854 10.407H61.9315C63.8846 10.407 64.8611 11.3835 64.8611 13.3366V20.6609L63.0057 21.5398H62.908V13.3366C62.908 12.5554 62.5825 12.1648 61.9315 12.1648H59.6854C59.0343 12.1648 58.7088 12.5554 58.7088 13.3366V20.6609L56.8533 21.5398H56.7557Z" fill="#9893A3" fill-opacity="0.6"/>
<path d="M71.2322 19.3913H73.283C73.9341 19.3913 74.2596 19.0007 74.2596 18.2195V16.8816C74.2596 16.1003 73.9341 15.7097 73.283 15.7097H71.2322C70.5812 15.7097 70.2557 16.1003 70.2557 16.8816V18.2195C70.2557 19.0007 70.5812 19.3913 71.2322 19.3913ZM71.2322 21.1491C69.2791 21.1491 68.3026 20.1726 68.3026 18.2195V16.8816C68.3026 14.9284 69.2791 13.9519 71.2322 13.9519H73.283C73.6216 13.9519 73.9471 14.0495 74.2596 14.2448V13.3366C74.2596 12.5554 73.9341 12.1648 73.283 12.1648H69.7869V12.0671L70.5682 10.407H73.283C75.2361 10.407 76.2127 11.3835 76.2127 13.3366V20.6609L74.3572 21.5398H74.2596V20.8562C74.0122 21.0515 73.6867 21.1491 73.283 21.1491H71.2322Z" fill="#9893A3" fill-opacity="0.6"/>
<path d="M81.4315 21.5398V12.1843H78.9217V12.0866L79.7127 10.407H81.4315V6.89133L83.2869 6.01242H83.3846V10.407H85.8943V10.5046L85.1033 12.1843H83.3846V20.6609L81.5291 21.5398H81.4315Z" fill="#9893A3" fill-opacity="0.6"/>
<path d="M91.533 19.3913H93.7791C94.4302 19.3913 94.7557 19.0007 94.7557 18.2195V13.3366C94.7557 12.5554 94.4302 12.1648 93.7791 12.1648H91.533C90.882 12.1648 90.5565 12.5554 90.5565 13.3366V18.2195C90.5565 19.0007 90.882 19.3913 91.533 19.3913ZM91.533 21.1491C89.5799 21.1491 88.6033 20.1726 88.6033 18.2195V13.3366C88.6033 11.3835 89.5799 10.407 91.533 10.407H93.7791C95.7322 10.407 96.7088 11.3835 96.7088 13.3366V18.2195C96.7088 20.1726 95.7322 21.1491 93.7791 21.1491H91.533Z" fill="#9893A3" fill-opacity="0.6"/>
<path d="M100.638 21.5398V13.3366C100.638 11.3835 101.615 10.407 103.568 10.407H106.01V10.5046L105.228 12.1648H103.568C102.917 12.1648 102.592 12.5554 102.592 13.3366V20.6609L100.736 21.5398H100.638Z" fill="#9893A3" fill-opacity="0.6"/>
</svg>
