<svg width="103" height="24" viewBox="0 0 103 24" fill="none" xmlns="http://www.w3.org/2000/svg">
<path fill-rule="evenodd" clip-rule="evenodd" d="M1.34528 10.3847C2.6709 4.28306 7.45548 0 12.946 0C18.4365 0 23.2211 4.28306 24.5467 10.3847H23.4989C21.7312 10.3549 19.9998 10.9599 18.5477 12.1147C18.4639 12.1842 18.3764 12.2477 18.2857 12.3047H18.1635C18.0728 12.2477 17.9853 12.1842 17.9015 12.1147C14.9051 9.80724 10.9869 9.80724 7.99048 12.1147C7.90668 12.1842 7.81919 12.2477 7.72852 12.3047H7.60627C7.51559 12.2477 7.4281 12.1842 7.3443 12.1147C5.89225 10.9599 4.16082 10.3549 2.39314 10.3847H1.34528ZM21.6135 16.6547C22.1514 16.175 22.8181 15.924 23.4996 15.9447H24.9055V12.7347H23.4996C22.2992 12.7181 21.1261 13.146 20.1552 13.9547C19.0337 14.9016 17.5044 14.9016 16.3829 13.9547C14.344 12.3293 11.6369 12.3293 9.59798 13.9547C8.47647 14.9016 6.94719 14.9016 5.82567 13.9547C4.84278 13.1357 3.65293 12.7072 2.43758 12.7347H0.988037V15.9447H2.39392C3.07548 15.924 3.74216 16.175 4.28008 16.6547C6.3155 18.2813 9.02083 18.2813 11.0563 16.6547C11.5949 16.1765 12.2611 15.9257 12.9424 15.9447C13.6242 15.9223 14.2914 16.1735 14.8286 16.6547C16.8675 18.2801 19.5745 18.2801 21.6135 16.6547ZM23.4996 21.6847C22.8181 21.664 22.1514 21.915 21.6135 22.3947C19.5745 24.0201 16.8675 24.0201 14.8286 22.3947C14.2914 21.9135 13.6242 21.6623 12.9424 21.6847C12.2611 21.6657 11.5949 21.9165 11.0563 22.3947C9.02083 24.0213 6.3155 24.0213 4.28008 22.3947C3.74216 21.915 3.07548 21.664 2.39392 21.6847H0.988037V18.4747H2.43758C3.65293 18.4472 4.84278 18.8757 5.82567 19.6947C6.94719 20.6416 8.47647 20.6416 9.59798 19.6947C11.6369 18.0693 14.344 18.0693 16.3829 19.6947C17.5044 20.6416 19.0337 20.6416 20.1552 19.6947C21.1261 18.886 22.2992 18.4581 23.4996 18.4747H24.9055V21.6847H23.4996Z" fill="#9893A3" fill-opacity="0.6"/>
<path d="M36.0131 19.2347C34.9322 19.2347 34.1455 18.9014 33.6529 18.2347C33.1603 17.5547 32.9141 16.588 32.9141 15.3347V9.1747H35.2742V15.0347C35.2742 15.848 35.3974 16.4214 35.6436 16.7547C35.8899 17.088 36.2867 17.2547 36.834 17.2547C37.2718 17.2547 37.6549 17.148 37.9833 16.9347C38.3253 16.7214 38.6879 16.3747 39.071 15.8947V9.1747H41.4312V18.9947H39.502L39.3173 17.5547H39.2557C38.8179 18.0614 38.339 18.468 37.8191 18.7747C37.3129 19.0814 36.7108 19.2347 36.0131 19.2347Z" fill="#9893A3" fill-opacity="0.6"/>
<path d="M43.3945 18.9947V9.1747H45.3442L45.5084 10.5147H45.5905C46.0146 10.0747 46.473 9.70136 46.9655 9.3947C47.4718 9.08803 48.0396 8.9347 48.669 8.9347C49.4078 8.9347 49.9961 9.08803 50.434 9.3947C50.8855 9.70136 51.2275 10.1347 51.4601 10.6947C51.939 10.188 52.4384 9.76803 52.9583 9.4347C53.4782 9.10136 54.0597 8.9347 54.7028 8.9347C55.77 8.9347 56.5567 9.27469 57.0629 9.95469C57.5692 10.6214 57.8223 11.5814 57.8223 12.8347V18.9947H55.4416V13.1347C55.4416 12.3214 55.3116 11.748 55.0517 11.4147C54.8054 11.0814 54.4223 10.9147 53.9024 10.9147C53.273 10.9147 52.5684 11.3214 51.7885 12.1347V18.9947H49.4283V13.1347C49.4283 12.3214 49.2983 11.748 49.0384 11.4147C48.7921 11.0814 48.4022 10.9147 47.8686 10.9147C47.2392 10.9147 46.5346 11.3214 45.7547 12.1347V18.9947H43.3945Z" fill="#9893A3" fill-opacity="0.6"/>
<path d="M64.5492 19.2347C64.0841 19.2347 63.612 19.128 63.1332 18.9147C62.668 18.688 62.2233 18.368 61.7991 17.9547H61.7376L61.5323 18.9947H59.6647V4.87469H62.0249V8.51469L61.9633 10.1547C62.3875 9.7947 62.8458 9.50136 63.3384 9.2747C63.8446 9.04803 64.3577 8.9347 64.8776 8.9347C65.507 8.9347 66.068 9.05469 66.5605 9.29469C67.0531 9.52136 67.4704 9.85469 67.8124 10.2947C68.1545 10.7214 68.4144 11.2414 68.5923 11.8547C68.7702 12.468 68.8591 13.1547 68.8591 13.9147C68.8591 14.7547 68.736 15.508 68.4897 16.1747C68.2571 16.828 67.9424 17.3814 67.5456 17.8347C67.1489 18.288 66.6905 18.6347 66.1706 18.8747C65.6507 19.1147 65.1102 19.2347 64.5492 19.2347ZM64.0567 17.3347C64.7271 17.3347 65.2881 17.0547 65.7396 16.4947C66.1911 15.9214 66.4169 15.0747 66.4169 13.9547C66.4169 12.968 66.2458 12.2014 65.9038 11.6547C65.5617 11.108 65.0076 10.8347 64.2414 10.8347C63.5299 10.8347 62.7911 11.2014 62.0249 11.9347V16.5147C62.3806 16.8214 62.7295 17.0347 63.0716 17.1547C63.4273 17.2747 63.7557 17.3347 64.0567 17.3347Z" fill="#9893A3" fill-opacity="0.6"/>
<path d="M70.2029 18.9947V9.1747H72.1526L72.3168 10.9147H72.3989C72.7546 10.2747 73.1856 9.78803 73.6918 9.45469C74.1981 9.10803 74.718 8.9347 75.2516 8.9347C75.7305 8.9347 76.1136 9.00136 76.4009 9.1347L75.9904 11.1347C75.8126 11.0814 75.6484 11.0414 75.4979 11.0147C75.3474 10.988 75.1627 10.9747 74.9438 10.9747C74.547 10.9747 74.1297 11.128 73.6918 11.4347C73.254 11.728 72.8778 12.248 72.5631 12.9947V18.9947H70.2029Z" fill="#9893A3" fill-opacity="0.6"/>
<path d="M80.9423 19.2347C80.2445 19.2347 79.5946 19.1214 78.9926 18.8947C78.3906 18.6547 77.8638 18.3147 77.4123 17.8747C76.9608 17.4347 76.6051 16.9014 76.3451 16.2747C76.0988 15.6347 75.9757 14.908 75.9757 14.0947C75.9757 13.2947 76.1057 12.5747 76.3656 11.9347C76.6256 11.2947 76.9676 10.7547 77.3918 10.3147C77.8296 9.8747 78.329 9.53469 78.89 9.29469C79.4509 9.05469 80.0256 8.9347 80.6139 8.9347C81.298 8.9347 81.9 9.04803 82.42 9.2747C82.9399 9.50136 83.3709 9.82136 83.7129 10.2347C84.0687 10.648 84.3355 11.1414 84.5133 11.7147C84.6912 12.288 84.7801 12.9147 84.7801 13.5947C84.7801 13.8214 84.7664 14.0347 84.7391 14.2347C84.7254 14.4347 84.7049 14.5947 84.6775 14.7147H78.2743C78.3837 15.5947 78.6984 16.2747 79.2183 16.7547C79.7519 17.2214 80.4292 17.4547 81.2501 17.4547C81.688 17.4547 82.0916 17.3947 82.461 17.2747C82.8441 17.1414 83.2204 16.9614 83.5898 16.7347L84.3902 18.1747C83.9113 18.4814 83.3777 18.7347 82.7894 18.9347C82.201 19.1347 81.5854 19.2347 80.9423 19.2347ZM78.2538 13.1547H82.7278C82.7278 12.3947 82.5568 11.8014 82.2147 11.3747C81.8864 10.9347 81.3733 10.7147 80.6755 10.7147C80.0735 10.7147 79.5467 10.9214 79.0952 11.3347C78.6437 11.748 78.3632 12.3547 78.2538 13.1547Z" fill="#9893A3" fill-opacity="0.6"/>
<path d="M88.3067 19.2347C87.4585 19.2347 86.8633 18.988 86.5212 18.4947C86.1792 18.0014 86.0081 17.328 86.0081 16.4747V4.87469H88.3683V16.5947C88.3683 16.8747 88.423 17.0747 88.5325 17.1947C88.642 17.3014 88.7583 17.3547 88.8814 17.3547C88.9361 17.3547 88.984 17.3547 89.0251 17.3547C89.0798 17.3547 89.155 17.3414 89.2508 17.3147L89.5587 19.0347C89.244 19.168 88.8267 19.2347 88.3067 19.2347Z" fill="#9893A3" fill-opacity="0.6"/>
<path d="M92.8523 19.2347C92.004 19.2347 91.4088 18.988 91.0668 18.4947C90.7247 18.0014 90.5537 17.328 90.5537 16.4747V4.87469H92.9139V16.5947C92.9139 16.8747 92.9686 17.0747 93.0781 17.1947C93.1875 17.3014 93.3038 17.3547 93.427 17.3547C93.4817 17.3547 93.5296 17.3547 93.5706 17.3547C93.6253 17.3547 93.7006 17.3414 93.7964 17.3147L94.1042 19.0347C93.7895 19.168 93.3722 19.2347 92.8523 19.2347Z" fill="#9893A3" fill-opacity="0.6"/>
<path d="M97.5415 19.2347C96.6522 19.2347 95.9339 18.9747 95.3866 18.4547C94.8393 17.9214 94.5657 17.2214 94.5657 16.3547C94.5657 15.8347 94.6751 15.3747 94.894 14.9747C95.1266 14.5614 95.4824 14.208 95.9612 13.9147C96.4538 13.6214 97.0695 13.3747 97.8083 13.1747C98.5608 12.9747 99.457 12.8214 100.497 12.7147C100.483 12.4614 100.442 12.2214 100.374 11.9947C100.319 11.7547 100.216 11.548 100.066 11.3747C99.9291 11.188 99.7444 11.048 99.5118 10.9547C99.2792 10.848 98.9918 10.7947 98.6498 10.7947C98.1572 10.7947 97.6715 10.888 97.1926 11.0747C96.7274 11.2614 96.2691 11.488 95.8176 11.7547L94.9556 10.2147C95.5166 9.86803 96.146 9.56803 96.8437 9.3147C97.5415 9.06136 98.294 8.9347 99.1013 8.9347C100.36 8.9347 101.297 9.30136 101.913 10.0347C102.542 10.7547 102.857 11.8014 102.857 13.1747V18.9947H100.907L100.743 17.9147H100.661C100.21 18.288 99.7238 18.6014 99.2039 18.8547C98.6977 19.108 98.1435 19.2347 97.5415 19.2347ZM98.3009 17.4347C98.7114 17.4347 99.0808 17.3414 99.4091 17.1547C99.7512 16.968 100.114 16.7014 100.497 16.3547V14.1547C99.8128 14.2347 99.2381 14.3414 98.7729 14.4747C98.3077 14.608 97.9315 14.7614 97.6441 14.9347C97.3568 15.0947 97.1516 15.2814 97.0285 15.4947C96.9053 15.708 96.8437 15.9347 96.8437 16.1747C96.8437 16.6147 96.9806 16.9347 97.2542 17.1347C97.5278 17.3347 97.8767 17.4347 98.3009 17.4347Z" fill="#9893A3" fill-opacity="0.6"/>
</svg>
